<?xml version="1.0" encoding="utf-8"?>
<!-- Generator: Adobe Illustrator 21.1.0, SVG Export Plug-In . SVG Version: 6.00 Build 0)  -->
<svg version="1.1" id="Capa_1" xmlns="http://www.w3.org/2000/svg" xmlns:xlink="http://www.w3.org/1999/xlink" x="0px" y="0px"
	 viewBox="0 0 36.8 36.8" style="enable-background:new 0 0 36.8 36.8;" xml:space="preserve">
<style type="text/css">
	.st0{fill:#FFFFFF;}
</style>
<g>
	<path class="st0" d="M36.8,15L29,7.2v3.5h-1.7V6.2c0-0.8-0.7-1.5-1.5-1.5H1.5C0.7,4.7,0,5.4,0,6.2v24.3c0,0.8,0.7,1.5,1.5,1.5h24.3
		c0.8,0,1.5-0.7,1.5-1.5V18.3H29v4.5L36.8,15z M24.3,29.1H3V7.7h21.3v2.9h-3.1c-4,0-7.3,3.3-7.3,7.3v7.6c0-4,3.3-7.3,7.3-7.3h3.1
		V29.1z"/>
</g>
</svg>
