<?xml version="1.0" encoding="utf-8"?>
<!-- Generator: Adobe Illustrator 21.1.0, SVG Export Plug-In . SVG Version: 6.00 Build 0)  -->
<svg version="1.1" id="Capa_1" xmlns="http://www.w3.org/2000/svg" xmlns:xlink="http://www.w3.org/1999/xlink" x="0px" y="0px"
	 viewBox="0 0 465 465" style="enable-background:new 0 0 465 465;" xml:space="preserve">
<style type="text/css">
	.st0{fill:#FFFFFF;}
</style>
<g>
	<path class="st0" d="M405.4,0h-10c-4.1,0-7.5,3.4-7.5,7.5s3.4,7.5,7.5,7.5h2.5v435h-2.5c-4.1,0-7.5,3.4-7.5,7.5s3.4,7.5,7.5,7.5h10
		c4.1,0,7.5-3.4,7.5-7.5V7.5C412.9,3.4,409.6,0,405.4,0z"/>
	<path class="st0" d="M315.4,140H109.6c-4.1,0-7.5,3.4-7.5,7.5s3.4,7.5,7.5,7.5h205.9c4.1,0,7.5-3.4,7.5-7.5S319.6,140,315.4,140z"
		/>
	<path class="st0" d="M315.4,260H109.6c-4.1,0-7.5,3.4-7.5,7.5s3.4,7.5,7.5,7.5h205.9c4.1,0,7.5-3.4,7.5-7.5S319.6,260,315.4,260z"
		/>
	<path class="st0" d="M315.4,300h-82.9c-4.1,0-7.5,3.4-7.5,7.5s3.4,7.5,7.5,7.5h82.9c4.1,0,7.5-3.4,7.5-7.5S319.6,300,315.4,300z"/>
	<path class="st0" d="M365.4,0H129.6c-0.3,0-0.5,0-0.7,0c-0.2,0-0.4,0.1-0.5,0.1c-0.1,0-0.1,0-0.2,0c-0.2,0-0.4,0.1-0.6,0.2
		c0,0-0.1,0-0.1,0c-0.2,0.1-0.4,0.1-0.6,0.2c0,0,0,0-0.1,0c-0.2,0.1-0.4,0.2-0.6,0.3c0,0-0.1,0-0.1,0c-0.2,0.1-0.3,0.2-0.5,0.3
		c0,0-0.1,0-0.1,0.1c-0.2,0.1-0.3,0.2-0.4,0.3c0,0-0.1,0.1-0.1,0.1c-0.2,0.1-0.3,0.3-0.5,0.5c0,0,0,0,0,0l-70,70c0,0,0,0-0.1,0.1
		c-0.2,0.2-0.3,0.3-0.4,0.5c0,0.1-0.1,0.1-0.1,0.2c-0.1,0.1-0.2,0.3-0.3,0.4c0,0-0.1,0.1-0.1,0.2C53.1,73.6,53,73.8,53,74
		c0,0,0,0.1-0.1,0.1c-0.1,0.2-0.2,0.4-0.3,0.6c0,0,0,0.1,0,0.1c-0.1,0.2-0.2,0.4-0.2,0.6c0,0,0,0.1,0,0.1c-0.1,0.2-0.1,0.4-0.2,0.6
		c0,0.1,0,0.1,0,0.2c0,0.2-0.1,0.4-0.1,0.5c0,0.2,0,0.5,0,0.7v380c0,4.1,3.4,7.5,7.5,7.5h305.9c4.1,0,7.5-3.4,7.5-7.5V7.5
		C372.9,3.4,369.6,0,365.4,0z M122.1,25.6V70H77.7L122.1,25.6z M357.9,450H67.1V85h62.5c4.1,0,7.5-3.4,7.5-7.5V15h220.9L357.9,450
		L357.9,450z"/>
	<path class="st0" d="M159.6,85h155.9c4.1,0,7.5-3.4,7.5-7.5s-3.4-7.5-7.5-7.5H159.6c-4.1,0-7.5,3.4-7.5,7.5S155.4,85,159.6,85z"/>
	<path class="st0" d="M315.4,180h-82.9c-4.1,0-7.5,3.4-7.5,7.5s3.4,7.5,7.5,7.5h82.9c4.1,0,7.5-3.4,7.5-7.5S319.6,180,315.4,180z"/>
	<path class="st0" d="M315.4,220h-82.9c-4.1,0-7.5,3.4-7.5,7.5s3.4,7.5,7.5,7.5h82.9c4.1,0,7.5-3.4,7.5-7.5S319.6,220,315.4,220z"/>
	<path class="st0" d="M192.5,315c4.1,0,7.5-3.4,7.5-7.5s-3.4-7.5-7.5-7.5h-82.9c-4.1,0-7.5,3.4-7.5,7.5v80c0,4.1,3.4,7.5,7.5,7.5
		h82.9c4.1,0,7.5-3.4,7.5-7.5v-50c0-4.1-3.4-7.5-7.5-7.5s-7.5,3.4-7.5,7.5V380h-67.9v-65H192.5z"/>
	<path class="st0" d="M109.6,235h82.9c4.1,0,7.5-3.4,7.5-7.5s-3.4-7.5-7.5-7.5h-82.9c-4.1,0-7.5,3.4-7.5,7.5S105.4,235,109.6,235z"
		/>
	<path class="st0" d="M265.4,380h-32.9c-4.1,0-7.5,3.4-7.5,7.5s3.4,7.5,7.5,7.5h32.9c4.1,0,7.5-3.4,7.5-7.5S269.6,380,265.4,380z"/>
	<path class="st0" d="M315.4,340h-82.9c-4.1,0-7.5,3.4-7.5,7.5s3.4,7.5,7.5,7.5h82.9c4.1,0,7.5-3.4,7.5-7.5S319.6,340,315.4,340z"/>
	<path class="st0" d="M109.6,195h82.9c4.1,0,7.5-3.4,7.5-7.5s-3.4-7.5-7.5-7.5h-82.9c-4.1,0-7.5,3.4-7.5,7.5S105.4,195,109.6,195z"
		/>
</g>
</svg>
