<?xml version="1.0" encoding="utf-8"?>
<!-- Generator: Adobe Illustrator 21.1.0, SVG Export Plug-In . SVG Version: 6.00 Build 0)  -->
<svg version="1.1" id="Capa_1" xmlns="http://www.w3.org/2000/svg" xmlns:xlink="http://www.w3.org/1999/xlink" x="0px" y="0px"
	 viewBox="0 0 31.5 31.5" style="enable-background:new 0 0 31.5 31.5;" xml:space="preserve">
<style type="text/css">
	.st0{fill:#FFFFFF;}
</style>
<g>
	<g>
		<path class="st0" d="M30.2,7V5l-0.3-0.1c-0.1,0-2.4-0.9-5.5-0.9c-3.3,0-6.2,1-8.5,3c-2.3-2-5.2-3-8.5-3C4.2,4,1.9,4.9,1.8,4.9
			L1.5,5v1.8C0.6,7,0,7.4,0,7.9c0,2.7,0,18.9,0,18.9h13.9c0.5,0.4,1.2,0.7,2,0.7c0.8,0,1.5-0.3,2-0.7h13.6c0,0,0-18,0-18.9
			C31.5,7.5,31,7.2,30.2,7z M15.7,25.3c-1.2-0.5-5.1-2-9.1-2c-1.6,0-3,0.2-4.2,0.7V5.7C3.1,5.4,5,4.9,7.3,4.9c3.1,0,5.7,0.9,7.8,2.7
			v11l0.5-0.6C15.7,18,15.7,25.3,15.7,25.3z M29.3,24c-1.3-0.5-2.7-0.8-4.4-0.8c-4,0-7.8,1.5-8.9,2V18l0.5,0.6v-11
			c2.1-1.8,4.8-2.7,7.8-2.7c2.3,0,4.2,0.5,4.9,0.8C29.3,5.7,29.3,24,29.3,24z"/>
		<path class="st0" d="M4.2,8.1l0.2,0.7c4.7-1.2,8.9,1.1,9,1.1l0.4-0.6C13.6,9.1,9.2,6.7,4.2,8.1z"/>
		<path class="st0" d="M4.2,10.1l0.2,0.7c4.7-1.2,8.9,1.1,9,1.1l0.4-0.6C13.6,11.2,9.2,8.8,4.2,10.1z"/>
		<path class="st0" d="M4.2,12.1l0.2,0.7c4.7-1.2,8.9,1.1,9,1.1l0.4-0.6C13.6,13.1,9.2,10.8,4.2,12.1z"/>
		<path class="st0" d="M4.2,14.2l0.2,0.7c4.7-1.2,8.9,1.1,9,1.1l0.4-0.6C13.6,15.3,9.2,12.9,4.2,14.2z"/>
		<path class="st0" d="M4.2,16.2l0.2,0.7c4.7-1.2,8.9,1.1,9,1.1l0.4-0.6C13.6,17.2,9.2,14.9,4.2,16.2z"/>
		<path class="st0" d="M4.2,18.2l0.2,0.7c4.7-1.2,8.9,1.1,9,1.1l0.4-0.6C13.6,19.3,9.2,16.9,4.2,18.2z"/>
		<path class="st0" d="M4.2,20.3L4.4,21c4.7-1.2,8.9,1.1,9,1.1l0.4-0.6C13.6,21.3,9.2,18.9,4.2,20.3z"/>
		<path class="st0" d="M18.6,9.9c0,0,4.3-2.3,9-1.1l0.2-0.7c-5-1.3-9.3,1.1-9.5,1.2L18.6,9.9z"/>
		<path class="st0" d="M18.2,11.3l0.4,0.6c0,0,4.3-2.3,9-1.1l0.2-0.7C22.8,8.9,18.4,11.2,18.2,11.3z"/>
		<path class="st0" d="M18.2,13.3l0.4,0.6c0,0,4.3-2.3,9-1.1l0.2-0.7C22.8,10.8,18.4,13.2,18.2,13.3z"/>
		<path class="st0" d="M18.2,15.4l0.4,0.6c0,0,4.3-2.3,9-1.1l0.2-0.7C22.8,12.9,18.4,15.3,18.2,15.4z"/>
		<path class="st0" d="M18.2,17.4l0.4,0.6c0,0,4.3-2.3,9-1.1l0.2-0.7C22.8,14.9,18.4,17.3,18.2,17.4z"/>
		<path class="st0" d="M18.2,19.4l0.4,0.6c0,0,4.3-2.3,9-1.1l0.2-0.7C22.8,17,18.4,19.3,18.2,19.4z"/>
		<path class="st0" d="M18.2,21.5l0.4,0.6c0,0,4.3-2.3,9-1.1l0.2-0.7C22.8,19,18.4,21.4,18.2,21.5z"/>
	</g>
</g>
</svg>
